<?xml version="1.0" standalone="no"?><!DOCTYPE svg PUBLIC "-//W3C//DTD SVG 1.1//EN" "http://www.w3.org/Graphics/SVG/1.1/DTD/svg11.dtd"><svg t="1569203162097" class="icon" viewBox="0 0 1024 1024" version="1.1" xmlns="http://www.w3.org/2000/svg" p-id="3047" xmlns:xlink="http://www.w3.org/1999/xlink" width="200" height="200"><defs><style type="text/css"></style></defs><path d="M301.6 501.8m-51.2 0a51.2 51.2 0 1 0 102.4 0 51.2 51.2 0 1 0-102.4 0Z" p-id="3048"></path><path d="M512.9 501.8m-51.2 0a51.2 51.2 0 1 0 102.4 0 51.2 51.2 0 1 0-102.4 0Z" p-id="3049"></path><path d="M724.1 501.8m-51.2 0a51.2 51.2 0 1 0 102.4 0 51.2 51.2 0 1 0-102.4 0Z" p-id="3050"></path><path d="M301.6 654.1m-51.2 0a51.2 51.2 0 1 0 102.4 0 51.2 51.2 0 1 0-102.4 0Z" p-id="3051"></path><path d="M512.9 654.1m-51.2 0a51.2 51.2 0 1 0 102.4 0 51.2 51.2 0 1 0-102.4 0Z" p-id="3052"></path><path d="M724.1 654.1m-51.2 0a51.2 51.2 0 1 0 102.4 0 51.2 51.2 0 1 0-102.4 0Z" p-id="3053"></path><path d="M815.5 180.7H714.9v-28.6c0-23.3-19.1-42.4-42.4-42.4-23.3 0-42.4 19.1-42.4 42.4v28.6H393v-28.6c0-23.3-19.1-42.4-42.4-42.4-23.3 0-42.4 19.1-42.4 42.4v28.6H206.8c-78.1 0-141.7 63.6-141.7 141.7v440.1c0 78.1 63.6 141.7 141.7 141.7h608.7c78.1 0 141.7-63.6 141.7-141.7V322.4c0-78.1-63.6-141.7-141.7-141.7z m81.7 581.8c0 45-36.6 81.7-81.7 81.7H206.8c-45 0-81.7-36.6-81.7-81.7V322.4c0-45 36.6-81.7 81.7-81.7h101.4v8.2c0 23.3 19.1 42.4 42.4 42.4 23.3 0 42.4-19.1 42.4-42.4v-8.2h237.2v8.2c0 23.3 19.1 42.4 42.4 42.4 23.3 0 42.4-19.1 42.4-42.4v-8.2h100.6c45 0 81.7 36.6 81.7 81.7v440.1z" p-id="3054"></path></svg>