<?xml version="1.0" standalone="no"?><!DOCTYPE svg PUBLIC "-//W3C//DTD SVG 1.1//EN" "http://www.w3.org/Graphics/SVG/1.1/DTD/svg11.dtd"><svg t="1569203194180" class="icon" viewBox="0 0 1024 1024" version="1.1" xmlns="http://www.w3.org/2000/svg" p-id="3480" xmlns:xlink="http://www.w3.org/1999/xlink" width="200" height="200"><defs><style type="text/css"></style></defs><path d="M872.803 755.994h0.061v-0.37zM165.848 442.25c-36.401 0-65.925 28.55-65.925 63.803 0 35.266 29.524 63.863 65.925 63.863 36.43 0 65.954-28.597 65.954-63.863 0-35.222-29.525-63.804-65.954-63.804m197.818-202.573h527.455c18.227 0 32.954-14.285 32.954-31.895 0-17.64-14.727-31.938-32.954-31.938H363.666c-18.2 0-32.985 14.298-32.985 31.938 0 17.61 14.785 31.895 32.985 31.895M165.848 740.55c-36.401 0-65.925 28.568-65.925 63.82s29.524 63.85 65.925 63.85c36.43 0 65.954-28.597 65.954-63.85s-29.525-63.82-65.954-63.82M891.12 474.16H363.666c-18.2 0-32.985 14.283-32.985 31.895 0 17.655 14.785 31.939 32.985 31.939h527.455c18.227 0 32.954-14.283 32.954-31.94 0-17.61-14.726-31.894-32.954-31.894M165.848 143.933c-36.401 0-65.925 28.595-65.925 63.848 0 35.222 29.524 63.804 65.925 63.804 36.43 0 65.954-28.581 65.954-63.804 0-35.253-29.525-63.848-65.954-63.848M891.12 772.475H363.666c-18.2 0-32.985 14.255-32.985 31.896s14.785 31.895 32.985 31.895h527.455c18.227 0 32.954-14.254 32.954-31.895s-14.726-31.896-32.954-31.896" fill="" p-id="3481"></path></svg>