<?xml version="1.0" standalone="no"?><!DOCTYPE svg PUBLIC "-//W3C//DTD SVG 1.1//EN" "http://www.w3.org/Graphics/SVG/1.1/DTD/svg11.dtd"><svg t="1682841356584" class="icon" viewBox="0 0 1024 1024" version="1.1" xmlns="http://www.w3.org/2000/svg" p-id="13685" xmlns:xlink="http://www.w3.org/1999/xlink" width="200" height="200"><path d="M1011.894139 128.834439c8.18905-23.031704 14.842654-48.622486 10.236313-73.189637-3.070894-16.889916-11.77176-32.244386-25.590782-42.480699-15.354469-11.259944-34.803464-14.330838-53.740643-12.795391-14.330838 1.023631-28.14986 4.606341-41.457067 9.212682-17.401732 5.629972-33.779833 12.795391-50.157933 20.984441-19.96081 9.724497-39.409805 20.984441-58.858799 32.756201-23.031704 13.819022-45.039777 29.173492-67.047849 44.527961-20.984441 14.842654-41.968883 30.708939-62.441509 46.575224-26.102598-8.700866-52.717011-14.330838-79.331425-17.913548-25.078967-3.070894-50.157933-3.58271-75.236899-2.559078-20.472626 1.023631-40.433436 3.58271-60.394246 7.677235-19.448994 4.094525-38.897989 9.212682-57.323352 16.3781-18.425363 6.653603-36.338911 14.842654-53.740643 24.055336-17.401732 9.212682-33.779833 19.448994-49.646118 31.220754-15.866285 11.259944-30.708939 24.055335-44.527961 37.362542-13.819022 13.307207-27.126229 28.14986-38.897988 42.992514-11.77176 15.354469-23.031704 31.73257-32.756202 48.110671-9.724497 16.889916-18.425363 34.803464-25.590782 52.717011-7.165419 18.425363-13.307207 37.362542-17.913547 56.811536-4.606341 20.472626-7.677235 40.433436-9.724498 60.906062-2.047263 23.54352-2.047263 47.087039-0.511815 70.630559 2.047263 27.126229 6.653603 54.252458 14.330838 80.866872 2.047263 7.165419 4.094525 14.330838 6.653603 20.984441-16.889916 22.519888-33.268017 45.551592-49.134302 68.583296-15.354469 22.519888-29.685307 45.551592-42.992514 69.095112-10.748129 19.448994-20.984441 38.897989-29.173492 59.370615-8.700866 21.496257-16.378101 44.016145-16.889916 67.559665-0.511816 19.448994 4.606341 39.92162 18.425363 54.252458 13.307207 14.330838 32.756201 20.472626 52.205196 20.472626 13.307207 0 26.614413-2.559078 39.409805-5.629972 16.378101-4.606341 32.244386-10.748129 47.598855-17.913548 19.448994-8.700866 37.874358-18.937179 56.29972-29.685307 22.008073-12.795391 44.016145-27.126229 65.000587-41.457067 11.77176-7.677235 23.031704-15.866285 34.291648-24.055335 20.984441 13.307207 43.50433 24.055335 66.536034 33.268016 23.54352 9.212682 48.110671 16.378101 72.677822 20.984442 25.590782 5.118156 51.69338 7.165419 77.795977 7.677235 22.008073 0 43.50433-1.535447 65.512403-4.606341 20.984441-3.070894 41.457067-8.18905 61.929693-14.330838 19.96081-6.141788 39.409805-13.819022 57.835168-23.031704 18.425363-9.212682 36.338911-19.448994 53.228826-31.220755 16.889916-11.77176 32.756201-24.567151 48.110671-38.386173 14.842654-13.819022 29.173492-29.173492 41.457067-45.039777 12.795391-15.866285 24.567151-33.268017 34.803464-50.669748 10.236313-17.913548 19.448994-36.850726 27.126229-55.787906 2.559078-6.653603-2.047263-13.307207-9.212681-13.307206h-54.764274c-4.094525 0-7.165419 2.047263-9.212682 5.629972-9.724497 20.984441-21.496257 41.457067-35.315279 59.88243-14.842654 20.472626-32.244386 39.409805-51.69338 56.299721-18.937179 16.889916-39.92162 31.220754-61.929693 43.50433-23.031704 12.795391-47.598855 22.519888-73.189637 29.685307-26.102598 7.165419-53.228827 11.259944-80.355057 12.283576-27.126229 1.023631-54.764274-1.023631-81.378687-6.653604-26.102598-5.118156-52.205196-13.819022-76.260531-24.567151-23.031704-10.748129-44.527961-23.54352-64.488771-38.897989-20.472626-15.354469-38.897989-33.268017-55.27609-52.717011-16.378101-19.448994-30.708939-40.945252-42.480698-63.46514-2.559078-5.118156-5.118156-10.748129-7.677235-15.866285 15.866285-19.96081 31.73257-39.92162 48.622486-59.370615 17.401732-20.472626 35.315279-40.945252 53.228827-61.417877 18.937179-20.984441 37.874358-41.968883 57.323353-62.441508 19.96081-20.984441 39.92162-41.968883 60.394246-62.441509 20.472626-20.472626 40.945252-40.945252 61.929692-60.906062 20.472626-19.448994 41.457067-38.897989 62.441509-57.835167 20.472626-18.425363 40.945252-36.338911 61.929693-54.252459 16.889916-14.330838 34.291648-28.661676 51.69338-42.992514 23.031704 10.236313 45.551592 23.031704 65.512402 38.386174 20.472626 15.354469 39.409805 32.756201 55.787906 52.205195 16.378101 18.937179 30.708939 39.92162 42.480698 62.441509 12.795391 23.54352 22.519888 49.134302 29.173492 74.725084 1.535447 6.653603 3.070894 12.795391 4.606341 19.448994h-305.042124c-9.724497 0-19.448994 4.606341-26.102598 11.77176-11.259944 12.795391-12.283575 32.756201 1.023631 46.575224 7.165419 7.165419 16.889916 10.748129 27.126229 10.748128h345.47556c19.448994 0 34.803464-16.889916 33.268017-36.33891-1.023631-13.819022-3.070894-27.638045-5.629972-41.457068-4.606341-25.078967-11.77176-49.646117-20.984442-73.189637-8.700866-22.519888-19.448994-44.527961-31.73257-65.000586 16.889916-22.519888 33.268017-45.551592 48.622487-69.095112 14.842654-22.519888 29.173492-45.039777 41.968882-68.583297 10.236313-18.937179 19.96081-38.386173 28.149861-58.346983 1.535447-3.58271 2.559078-6.653603 3.582709-9.724497 7.677235-21.496257-13.307207 37.362542 0 0zM191.453662 904.235139c-15.866285 9.724497-32.244386 18.937179-48.622486 27.126229-11.259944 5.629972-23.031704 10.748129-34.803464 15.35447-7.677235 2.559078-15.354469 5.118156-23.031704 6.653603-4.094525 1.023631-8.18905 1.535447-12.795391 1.535447h-3.070894c-0.511816-4.094525 0-8.700866 1.023631-12.795391 1.535447-9.212682 4.606341-17.913548 7.677235-26.614414 7.677235-20.472626 17.913548-40.433436 28.661676-59.370614 12.795391-22.519888 26.614413-44.527961 41.457067-66.536034 7.677235-11.259944 15.354469-22.008073 23.031704-33.268017 22.519888 39.409805 51.181564 74.725084 84.961397 104.922207-15.866285 11.77176-64.488771 42.992514-64.488771 42.992514zM393.620841 394.466758c-74.725084 74.725084-143.30838 149.961984-201.655363 221.616174-5.118156-28.14986-7.165419-56.299721-5.629972-84.961397 1.535447-27.126229 6.141788-54.252458 13.819022-79.843241 7.677235-25.078967 17.913548-49.134302 30.708939-72.166005 12.283575-22.008073 27.638045-42.480698 44.527961-61.417878 16.889916-18.937179 36.338911-35.827095 56.811536-50.669748 20.472626-14.842654 42.992514-27.126229 66.024218-36.850727 25.078967-10.236313 51.181564-17.913548 77.795978-22.008073 27.638045-4.606341 55.27609-5.629972 83.42595-3.582709 11.77176 1.023631 23.54352 2.559078 35.31528 4.606341C529.763803 264.465584 460.668691 327.418909 393.620841 394.466758c-74.213268 74.213268 67.047849-67.047849 0 0z m341.892851-208.308967c22.008073-16.378101 45.039777-32.244386 68.07148-47.598855 17.913548-11.77176 35.827095-22.519888 54.252459-33.268017 13.307207-7.165419 26.614413-14.330838 40.433435-20.472626 9.212682-4.094525 18.937179-7.677235 28.661676-10.748128 5.629972-2.047263 11.77176-3.070894 17.913548-4.094525 3.070894-0.511816 6.653603-0.511816 9.724497-0.511816 0.511816 4.094525 0 8.700866-1.023631 12.795391-1.535447 9.212682-4.606341 17.913548-7.677235 26.614414-7.677235 20.472626-17.913548 40.433436-28.661676 59.370614-12.795391 22.519888-26.614413 44.527961-41.457067 66.536034-9.212682 13.819022-18.937179 27.638045-29.173492 41.457067-31.220754-36.338911-68.583296-66.536034-111.063994-90.079553z" fill="#040000" p-id="13686"></path></svg>