<svg t="1566699943870" class="icon" viewBox="0 0 1024 1024" version="1.1" xmlns="http://www.w3.org/2000/svg" p-id="1127" xmlns:xlink="http://www.w3.org/1999/xlink" width="128" height="128"><path d="M886.4 544L480 137.6c-12.8-12.8-28.8-19.2-48-19.2H188.8c-38.4 0-70.4 32-70.4 70.4v243.2c0 19.2 6.4 35.2 19.2 48L544 886.4c12.8 12.8 32 19.2 48 19.2 19.2 0 35.2-6.4 48-19.2l243.2-243.2c28.8-28.8 28.8-70.4 3.2-99.2zM320 384c-35.2 0-64-28.8-64-64s28.8-64 64-64 64 28.8 64 64-28.8 64-64 64z" p-id="1128"></path></svg>