<?xml version="1.0" standalone="no"?><!DOCTYPE svg PUBLIC "-//W3C//DTD SVG 1.1//EN" "http://www.w3.org/Graphics/SVG/1.1/DTD/svg11.dtd"><svg t="1587548820923" class="icon" viewBox="0 0 1030 1024" version="1.1" xmlns="http://www.w3.org/2000/svg" p-id="2092" xmlns:xlink="http://www.w3.org/1999/xlink" width="201.171875" height="200"><defs><style type="text/css"></style></defs><path d="M697.6 275.2C620.8 179.2 499.2 121.6 371.2 128 166.4 128 0 256 0 422.4c0 83.2 44.8 160 115.2 211.2l-57.6 172.8L262.4 704c38.4 6.4 76.8 12.8 115.2 12.8h51.2c-32-38.4-44.8-89.6-51.2-140.8-6.4-160 134.4-281.6 320-300.8zM448 275.2c0-19.2 12.8-32 32-32h25.6c19.2 0 32 12.8 32 32v25.6c0 19.2-12.8 32-32 32h-25.6c-19.2 0-32-12.8-32-32v-25.6z m-166.4 12.8c0 19.2-12.8 32-32 32h-25.6c-19.2 0-32-12.8-32-32v-25.6c0-19.2 12.8-32 32-32h25.6c19.2 0 32 12.8 32 32v25.6z" fill="" p-id="2093"></path><path d="M1024 556.8c0-121.6-128-224-288-224S448 435.2 448 556.8c0 128 128 224 288 224 38.4 0 76.8-6.4 115.2-19.2l179.2 83.2-64-160c32-25.6 57.6-76.8 57.6-128z m-390.4-51.2c0 19.2-12.8 32-32 32H576c-19.2 0-32-12.8-32-32v-25.6c0-19.2 12.8-32 32-32h25.6c19.2 0 32 12.8 32 32v25.6z m268.8 0c0 19.2-12.8 32-32 32h-25.6c-19.2 0-32-12.8-32-32v-25.6c0-19.2 19.2-32 32-32h25.6c19.2 0 32 12.8 32 32v25.6z" fill="" p-id="2094"></path></svg>