<svg xmlns="http://www.w3.org/2000/svg" version="1.1" xmlns:xlink="http://www.w3.org/1999/xlink" xmlns:svgjs="http://svgjs.com/svgjs" width="325.000000pt" height="260.000000pt"><svg version="1.0" xmlns="http://www.w3.org/2000/svg" width="325.000000pt" height="260.000000pt" viewBox="0 0 325.000000 260.000000" preserveAspectRatio="xMidYMid meet">
<metadata>
Created by potrace 1.16, written by Peter Selinger 2001-2019
</metadata>
<g transform="translate(0.000000,260.000000) scale(0.100000,-0.100000)" fill="#000000" stroke="none">
<path d="M770 1300 l0 -740 140 0 140 0 0 470 c0 259 3 470 8 470 4 0 196
-126 427 -280 l420 -280 5 190 5 190 135 90 c74 50 138 90 143 90 4 0 7 -211
7 -470 l0 -470 140 0 140 0 0 741 c0 589 -3 739 -12 733 -7 -4 -200 -132 -428
-284 l-415 -277 -410 274 c-226 151 -418 278 -427 284 -17 9 -18 -28 -18 -731z"></path>
<path d="M1340 750 l0 -190 282 0 c162 0 278 4 272 9 -5 5 -132 90 -281 190
l-273 181 0 -190z"></path>
</g>
</svg><style>@media (prefers-color-scheme: light) { :root { filter: none; } }
</style></svg>